<svg xmlns="http://www.w3.org/2000/svg" xmlns:xlink="http://www.w3.org/1999/xlink" viewBox="0 0 487.5 313">
  <g class='g_to_interact_with' id="frente_02" style="isolation: isolate">
    <path d="M469.5,197.25c-.1,4.09-1.6,7,0,10.5.78,1.71,3.76,4.13,4.5,6v7.5c1.57,6.32,1.5,16.23,1.5,24.75,0,4.55.94,13.73,0,15.75-4.32,6.32-16,9.76-24,12l-6.75.75c-1.44.7-3.55,3.2-5.25,3.75-5.67,1.85-12.27,0-18,1.5-52.35,13.46-137.67,20.09-198,8.25l-.75-2.25c-2.27-4.1,3.4-6.27,2.25-12-.64-3.19-2.88-9.32-.75-13.5,1.08-2.13,4.74-3.86,6-6,1-1.75-.06-3.71.75-6,3.41-9.64,17.1-27.92,30-27.75,4.3-2.6,16.52-.75,22.5-.75,10.58,0,19.46-1.46,28.5-1.5h24c8.11-2,20.37-3.42,28.5-4.5l6,1.5c3.15-.34,10.39-2.23,13.5-3h9c1.23-.39,3.27-2.61,4.5-3H411c5.83-1.42,14.16-3.18,19.5-4.5,8.26-2.05,13.94,2.07,21,2.25,2.91-4.66,6.68-6.85,10.5-10.5Z"  />
  </g>
  <g class='g_to_interact_with' id="frenteMedio_03" style="isolation: isolate">
    <path d="M136.5,72.75l6,.75c2.91,4.13,7.83,6.08,12,9,10.25,7.17,20.81,13.89,31.5,21,36.95,24.59,67.3,53.29,117,65.25,7.09,1.71,16.32-2.1,21-3.75,12.12-4.27,23.09-6.63,36-9.75,16.43-4,27.67,5.5,36.75,9.75L408,166.5c2.76,1,5.9,4.71,9,5.25l6-1.5c3.89.47,5.71,3.89,8.25,5.25l8.25.75c1.34.47,3,2.24,4.5,3v1.5c-4.55.79-4.5,3.73-7.5,5.25l-6,.75c-2.05.62-5.75,2.47-7.5,3H412.5c-1.23.39-3.27,2.61-4.5,3-4,1.28-11.74.7-15,1.5H382.5c-1.23.39-3.27,2.61-4.5,3-3.83,1.21-27.83-2.12-31.5-3-9.21-2.22-40.79-.26-48,1.5h-8.25c-3.65,1-18.06,5.84-20.25,8.25-4.67,5.15-12.78,19.54-21,20.25-3-2.05-10.2-.19-13.5-2.25-4.66-1.5-5.34-5.15-8.25-8.25-.18-5.22,1.09-5.14,2.25-9s-1.59-9-2.25-12c-1-4.61,2.55-8,1.5-9.75-.65-1.25-10-8.47-11.25-9h-6c-4.55-2-6.85-8.51-12-10.5l-9-1.5c-1.79-.68-4.19-3.15-6-3.75l-9-.75c-2.46-.94-4-4.35-6-5.25L147,150c-3.3-1.67-5.29-6.75-9-8.25-6.46-2.62-17.6-3.7-24-5.25l-10.5.75C101,136.42,98.6,133,96,132c-9.11-3.5-17.08-3.75-25.5-7.5C59.83,119.75,48.35,114.43,39,108c-4.94-3.4-6.83-10.37-14.25-11.25a16.39,16.39,0,0,1-3,3v-3a5.37,5.37,0,0,0,1.5-3c7.12-1,5.12-6.59,12-7.5,7.81,12.44,28.92,25.8,51.75,18,6.23-2.13,16.09-5.66,21-9.75,1.78-1.48,2.46-4.76,4.5-6,1.88-1.14,3.31-.43,5.25-1.5,3.14-1.74,5.44-5.46,8.25-7.5C129.4,77,133.54,75.63,136.5,72.75Z"  />
  </g>
  <g class='g_to_interact_with' id="middle_04" style="isolation: isolate">
    <path d="M214.5,165.75v6c11.8,7.79,16.49,27.19,16.5,46.5-12.14-.66-22.81-1.51-34.5-4.5-6.1-1.56-11-.18-16.5-2.25-2.34-.89-5.15-3.62-7.5-4.5-8.5-3.19-16.86-3-24.75-6,2.72-9-13-22.43-18.75-26.25-11.16-7.39-24.6-10-37.5-15.75-2-.89-4.79-3.53-6.75-4.5-10.3-5.1-19.69-8-29.25-13.5s-22.87-19.7-36-20.25c-.12-9.38-.05-18.49,1.5-26.25,1.79-.63,1.23-.3,2.25-1.5,9.08,2.66,7.06,4.73,13.5,10.5,2.1,1.88,4.87,2.42,6.75,4.5,1.19,1.33,1.56,3.45,3,4.5,2.3,1.68,4.82,1.6,7.5,3,3,1.57,6.72,4.49,9.75,6,9.3,4.65,21.87,8.61,32.25,11.25h12c1.23.51,2.64,3.15,3.75,3.75,3.87,2.08,8.07,1,12.75,2.25,8.78,2.36,17.48,3.42,27,6,7.34,2,24.63,8.81,30.75,7.5C191.8,155.91,203.12,165.57,214.5,165.75Z"  />
  </g>
  <g class='g_to_interact_with' id="backMiddle_05" style="isolation: isolate">
    <path d="M142.5,192.75l4.5.75c1.2,3.14,4.36,7.09,4.5,8.25-1.86,1.83-3.67,2.24-7.5,2.25-12.24-13.26-54.23-9.16-76.5-13.5-4-6.32-9.14-16.68-16.5-19.5l-31.5-7.5c-2.32-1.21-4.11-4.92-6-6.75.65-2.5,2.38-4.09,3-6,2.82-8.67,1.53-22,2.25-31.5,2.79-.55,3.65-2.07,6-.75,4.69,2,8,7.61,12,10.5a54.55,54.55,0,0,0,12.75,6.75c2.33.74,4.29-.34,6,.75,1.29.82,1.28,2.52,2.25,3.75,2,2.51,7.1,5.8,9.75,7.5,4.58,2.93,9.89,2.93,15,5.25,3,1.38,6.76,4.51,9.75,6,3.7,1.84,7.34,1.24,11.25,3,.86.39,2.89,2.58,3.75,3,6.54,3.25,12.67,4,18.75,7.5,6.65,3.85,11.18,10.51,16.5,15.75Z"  />
  </g>
  <g class='g_to_interact_with' id="buttom__06" style="isolation: isolate">
    <path d="M12,192.75c6.42.56,11.49,7,19.5,9,9.67,2.38,26.8-5.24,37.5-1.5,3.28,1.14,5.57,5.45,9,6.75,7.35,2.78,18.66-.52,25.5,2.25,2.79,1.13,4.67,5,7.5,6h6c2.5.65,6.49,2.38,9,3,10.8,2.66,22.46-1.13,33,1.5,24.27,6.05,50.85,10.37,76.5,15.75a11.7,11.7,0,0,1,.75,3.75c-3.68,3.86-3.11,7.66-5.25,13.5-1.14,3.1-5.33,5.35-6.75,8.25-2.27,4.61.54,10.29.75,14.25.32,6.17-4,6.93-1.5,12.75H222c-3.25-3.49-9.57-2.28-15-3.75-10.52-2.85-21.63-4.37-33-7.5-7.81-2.15-17.39-5.32-25.5-7.5-11-2.95-22.48-3.41-33-6H105c-3.63-.9-11.37-2.11-15-3-6-1.47-10.36,2.41-15,1.5-6.14-1.2-14.93-2.93-21-4.5H48c-.81-.38-.91-2.61-1.5-3-1-.69-5.31-1.33-6-1.5h-9c-4.11-1-8.11-1.4-12-2.25-1.4-2.09-3.94-3.3-5.25-5.25C9,237.51,10,220.93,12.75,211.5c-2.1-4.38-3.92-12-3-17.25A8.42,8.42,0,0,0,12,192.75Z"  />
  </g>
  <g class='g_to_interact_with' id="_midllebuttom_07" style="isolation: isolate">
    <path d="M67.5,190.5c15,2.55,33.07,1.93,46.5,5.25h9c13.92,3.48,29.12,7,42,10.5l18,2.25c.88.42,1.84,2.68,3,3,3.57,1,4.08-2.91,8.25-1.5,17.24,5.81,40.12,6.59,54.75,15-2.76,5.36-8,7.19-12,11.25-17.28.31-30.76-3.28-43.5-7.5-6.05-2-11.67.72-18-1.5-1.57-.55-3.15-2.93-4.5-3.75-2.9-1.76-8.77-2.94-12-3.75-7.68-1.93-19.83-.75-25.5,0-2.6.35-5.41-1.45-9-1.5h-12A56.55,56.55,0,0,1,102,213c-1.79-1.23-2.3-4.42-4.5-5.25H81C69.94,204.88,71.5,199.93,67.5,190.5Z"/>
  </g>
  <g class='g_to_interact_with' id="backback_08" style="isolation: isolate">
    <path d="M70.5,201c-11.58.22-36.5,3.67-45,0-3.05-1.32-6.3-4.43-9-6-3.94-2.3-6.58-.58-8.25-5.25-3.94-6,.43-30,2.25-33.75,6.79,1.5,9.12,6.4,14.25,9,7.94,4,18,2.79,26.25,6C58.42,173.87,70.35,190.6,70.5,201Z"  fill-rule="evenodd"/>
  </g>
  <g class='g_to_interact_with' id="frente_01" style="isolation: isolate">
    <path d="M435,176.25l12.75,1.5,15,15.75v3.75c-2,2.16-2.76,5-5.25,6.75-2,1.42-7.31,4.3-10.5,3.75-1.92-.33-4.22-2.25-7.5-1.5-5.55,1.27-14.09,3.1-20.25,4.5l-10.5-.75c-23,5-50.84,5.55-74.25,11.25-7,1.7-17.69-.43-22.5-1.5-5.06-1.13-10.34,1.5-16.5,1.5-13.82,0-28-2.35-39,0v-1.5c1.44-1.32,5.33-4.23,6-6v-6c.74-2.16,4.16-6.26,6-7.5,12.48-8.4,45.15-8.88,63-12.75,6.11-1.32,16.81-.31,21.75.75H376.5C400.34,188.25,423.62,188.62,435,176.25Z"  />
  </g>
  <g class='g_to_interact_with'
   id="Layer_1" data-name="Layer 1" style="isolation: isolate">
    <path d="M168,74.25h10.5c3.06-1,5.36-5.26,9-3.75,3.75,1.33,3.65,4.21,6,6.75-.76,3.37-3.4,9.66-2.25,12,2.22,5.11,15.35,9.37,20.25,12.75l4.5,5.25h7.5c3.76,1.73,3.39,8,7.5,9.75,1.37.84,4.09-.13,6,.75l3,3.75,9-.75c1.27.42,10.67,7.68,12,9h.75c1.16,1.44.8,4.17,2.25,5.25,3.14,2.35,7.84.81,12,2.25,6.74,2.33,12,10.11,16.5,15h9c4.19-1.19,9.52-5.07,13.5-6.75l9-.75c13.15-3.27,36.94-8.15,45,3,1.87,2.38,1.12,4.08,0,6.75-8.15,3.52-23.87,2.73-30,3.75-7,1.16-15.5,5.68-22.5,7.5-13.77,3.58-25.84-3.37-34.5-5.25-2.54-.55-5.77,1.12-9,0-3-1-5.17-3.76-7.5-5.25-2-1.26-3.51-.51-6-1.5-4.3-1.71-10.66-5.59-15-8.25l-7.5-8.25a123,123,0,0,0-11.25-6.75l-7.5-1.5-3.75-6c-5.44-4.61-15-10.25-21-14.25l-36-24c-5.41-3.61-12.2-4.23-13.5-12,4.76-2.56,19.78-11.39,23.25-1.5C167.85,72.13,167.83,72.51,168,74.25Z"  />
  </g>
  <g class='g_to_interact_with' id="shadow2_Image" data-name="shadow2 Image">
    <image id="shadow2_Image-2" data-name="shadow2 Image" width="650" height="650" transform="translate(0 -93.75) scale(0.75)" xlink:href="snikker1.png"/>
  </g>
</svg>
